<svg width="469.3999877929688" height="204.55884593216413" viewBox="0 0 370.3636363636364 161.39999999999998" class="css-1j8o68f"><defs id="SvgjsDefs20868"><linearGradient id="SvgjsLinearGradient20875"><stop id="SvgjsStop20876" stop-color="#7f00ff" offset="0"></stop><stop id="SvgjsStop20877" stop-color="#e100ff" offset="1"></stop></linearGradient><linearGradient id="SvgjsLinearGradient20878"><stop id="SvgjsStop20879" stop-color="#7f00ff" offset="0"></stop><stop id="SvgjsStop20880" stop-color="#e100ff" offset="1"></stop></linearGradient><linearGradient id="SvgjsLinearGradient20881"><stop id="SvgjsStop20882" stop-color="#7f00ff" offset="0"></stop><stop id="SvgjsStop20883" stop-color="#e100ff" offset="1"></stop></linearGradient></defs><g id="SvgjsG20869" featurekey="symbolGroupContainer" transform="matrix(0.699999988079071,0,0,0.699999988079071,9.5,6)" fill="url(#SvgjsLinearGradient20875)"><path xmlns="http://www.w3.org/2000/svg" fill-rule="evenodd" d="M5,65 L32,0 L59, 65 L32, 10 z M5,142 L32,222 L59,137 L32, 212 z"></path></g><g id="SvgjsG20870" featurekey="symbolFeature-0" transform="matrix(0.07241278886795044,0,0,0.07241278886795044,0,53.6834942602913)" fill="url(#SvgjsLinearGradient20878)"><g xmlns="http://www.w3.org/2000/svg">    <path d="M587.1,45.8c-52.2,0-103.5,13.8-148.2,40.5c-43.8-25.9-95.1-40.5-147.2-40.5C130.8,45.8,0,176.5,0,337.4         c0,160.9,130.8,291.7,291.7,291.7c52,0,103.1-13.7,147.7-40.2c44.6,26.5,95.7,40.2,147.7,40.2c160.9,0,291.7-130.8,291.7-291.7         C878.8,176.5,748,45.8,587.1,45.8z M439.4,559.9c-46.1-30.9-80.6-74-100.4-123.3l113.7,113.7C448.4,553.6,443.9,556.8,439.4,559.9z          M473.4,532.7L323.8,383.2c-2.6-15-3.9-30.3-3.9-45.8c0-3.6,0.1-7.2,0.2-10.8l178.4,179.1C490.8,515.3,482.4,524.3,473.4,532.7z          M514.7,483.7L323.8,292.1c2.5-14.5,6.1-28.6,10.9-42.3l199.2,199.2C528.3,461,521.9,472.6,514.7,483.7z M544.6,421.5L345.8,222.6         c5.5-11.5,11.8-22.6,18.9-33.3l190.1,190.1C552.5,393.8,549.1,407.9,544.6,421.5z M380.9,167.4c7.9-9.6,16.5-18.7,25.8-27.3         l146.6,146.6c3.1,16.5,4.7,33.4,4.7,50.7c0,2.3,0,4.6-0.1,7L380.9,167.4z M427.6,122.8c3.7-2.8,7.6-5.5,11.5-8.2         c44.6,29.3,78.1,70.3,98,117.6L427.6,122.8z M24.5,337.4C24.5,189.7,144,70.2,291.7,70.2c44.2,0,86.6,10.3,125.1,31         c-76.2,54.6-120.4,142.1-120.4,236.2S341.6,519,416.8,573.6c-38.6,20.7-81.9,31-125.1,31C144,604.7,24.5,485.2,24.5,337.4z          M587.1,604.7c-44.2,0-86.6-10.3-125.1-31c76.2-54.6,120.4-142.1,120.4-236.2S538.2,155.8,462,101.3c38.6-20.7,80.9-31,125.1-31         c147.7,0,267.2,119.5,267.2,267.2C854.4,485.2,734.9,604.7,587.1,604.7z"></path></g></g><g id="SvgjsG20871" featurekey="nameFeature-0" transform="matrix(1.5395894050598145,0,0,1.5395894050598145,81.22873724101225,38.14076481257017)" fill="url(#SvgjsLinearGradient20881)"><path d="M2.2 19.8 l0 -1.2 c0 -3.8 2.8 -6.6 7 -6.6 l11 0 l0 1.8 l-0.8 0.8 l-10.2 0 c-2.2 0 -4 1.8 -4 4 l0 1.2 c0 2.2 1.2 3.36 3.2 3.8 l7.4 1.6 c2.8 0.6 5 2.8 5 6.4 l0 1.8 c0 3.8 -2.8 6.6 -7 6.6 l-12 0 l0 -2.6 l12 0 c2.2 0 4 -1.8 4 -4 l0 -1.8 c0 -2.2 -1.2 -3.36 -3.2 -3.8 l-7.4 -1.6 c-2.8 -0.6 -5 -2.8 -5 -6.4 z  M28.200000000000003 24.8 l0 10 c0 1.8 1.4 3.2 3.2 3.2 l5 0 c1.8 0 3.2 -1.4 3.2 -3.2 l0 -10 c0 -1.8 -1.4 -3.2 -3.2 -3.2 l-5 0 c-1.8 0 -3.2 1.4 -3.2 3.2 z M25.400000000000002 34.8 l0 -10 c0 -3.2 2.4 -5.6 6 -5.6 l5 0 c3.6 0 6 2.4 6 5.6 l0 10 c0 3.2 -2.4 5.6 -6 5.6 l-5 0 c-3.8 0 -6 -2.4 -6 -5.6 z M48.400000000000006 19.6 l2.8 0 l0 15.2 c0 1.8 1.4 3.2 3.2 3.2 l3.6 0 c3 0 4.6 -3.6 4.6 -3.6 l0 -14.8 l2.8 0 l0 20.4 l-1.8 0 l-0.4 -2.8 l-0.2 0 s-1.6 3.2 -5 3.2 l-3.6 0 c-3.6 0 -6 -2.4 -6 -5.6 l0 -15.2 z M83.00000000000001 19.2 l0 2.6 l-3.8 0 c-3 0 -4.6 3.4 -4.6 3.4 l0 14.8 l-2.8 0 l0 -20.4 l1.8 0 l0.4 2.8 l0.2 0 s1.6 -3.2 5 -3.2 l3.8 0 z M100.60000000000001 22 l-8.4 0 c-1.8 0 -3.2 1.4 -3.2 3.2 l0 9.2 c0 1.8 1.4 3.2 3.2 3.2 l9.2 0 l0 2.4 l-9.2 0 c-3.8 0 -6 -2.4 -6 -5.6 l0 -9.2 c0 -3.2 2.4 -5.6 6 -5.6 l9.2 0 l0 1.6 z M121 40 l-9.6 0 c-3.8 0 -6 -2.4 -6 -5.6 l0 -9.6 c0 -3.2 2.4 -5.6 6 -5.6 l4.4 0 c3.6 0 6 2.4 6 5.6 l0 6.2 l-13.6 0 l0 3.4 c0 1.8 1.4 3.2 3.2 3.2 l9.6 0 l0 2.4 z M108.2 24.8 l0 3.8 l10.8 0 l0 -3.8 c0 -1.8 -1.4 -3.2 -3.2 -3.2 l-4.4 0 c-1.8 0 -3.2 1.4 -3.2 3.2 z M139 19.2 l0 2.6 l-3.8 0 c-3 0 -4.6 3.4 -4.6 3.4 l0 14.8 l-2.8 0 l0 -20.4 l1.8 0 l0.4 2.8 l0.2 0 s1.6 -3.2 5 -3.2 l3.8 0 z M145.4 32.8 l-2.4 7.2 l-3 0 l0 -1.2 l9.8 -26.8 l3.4 0 l9.8 26.8 l0 1.2 l-3 0 l-2.4 -7.2 l-12.2 0 z M156.6 30.2 l-5 -14.6 l-0.2 0 l-5 14.6 l10.2 0 z M166.79999999999998 33.8 l0 -15.6 c0 -3.8 2.8 -6.6 7 -6.6 l7 0 c4.2 0 7 2.8 7 6.6 l0 15.6 c0 3.8 -2.8 6.6 -7 6.6 l-7 0 c-4.2 0 -7 -2.8 -7 -6.6 z M184.79999999999998 33.8 l0 -15.6 c0 -2.2 -1.8 -4 -4 -4 l-7 0 c-2.2 0 -4 1.8 -4 4 l0 15.6 c0 2.2 1.8 4 4 4 l7 0 c2.2 0 4 -1.8 4 -4 z"></path></g></svg>
